<?xml version="1.0" standalone="no"?>
<!DOCTYPE svg PUBLIC "-//W3C//DTD SVG 20010904//EN"
 "http://www.w3.org/TR/2001/REC-SVG-20010904/DTD/svg10.dtd">
<svg version="1.0" xmlns="http://www.w3.org/2000/svg"
 width="1698.000000pt" height="930.000000pt" viewBox="0 0 1698.000000 930.000000"
 preserveAspectRatio="xMidYMid meet">

<g transform="translate(0.000000,930.000000) scale(0.100000,-0.100000)"
fill="#6331D8" stroke="none">
<path d="M2417 9290 c-210 -19 -416 -75 -581 -159 -350 -178 -593 -491 -697
-894 -42 -166 -48 -260 -64 -987 -20 -970 -31 -1118 -104 -1355 -78 -253 -196
-382 -583 -641 -192 -128 -268 -200 -317 -299 -50 -102 -65 -175 -65 -315 1
-280 58 -365 390 -590 250 -169 349 -253 429 -365 103 -144 181 -358 204 -560
16 -141 30 -499 46 -1160 16 -654 22 -730 65 -901 116 -459 430 -807 875 -967
244 -87 607 -119 836 -72 320 66 474 271 456 605 -11 183 -59 303 -163 408
-80 80 -142 108 -308 139 -195 37 -284 66 -333 107 -122 105 -176 296 -188
671 -3 99 -10 369 -15 600 -10 424 -24 626 -61 855 -51 318 -152 586 -291 769
-101 132 -278 298 -418 391 -36 24 -75 51 -88 61 l-22 17 92 65 c503 352 694
724 758 1477 5 69 12 148 15 177 3 28 12 274 20 545 16 534 28 732 51 847 50
244 136 310 489 375 158 29 228 60 305 136 111 108 167 284 157 490 -6 127
-32 215 -87 298 -72 107 -198 183 -360 216 -96 19 -317 27 -443 16z"/>
<path d="M14229 9290 c-383 -35 -574 -242 -556 -605 11 -217 70 -346 209 -455
66 -53 136 -77 310 -106 199 -33 249 -52 319 -123 124 -127 145 -260 159
-1056 10 -567 20 -734 56 -980 37 -255 91 -440 184 -631 125 -258 299 -448
589 -643 l63 -43 -53 -37 c-206 -141 -416 -337 -503 -468 -143 -218 -227 -447
-270 -738 -39 -265 -54 -506 -66 -1095 -5 -267 -14 -532 -20 -590 -27 -262
-91 -405 -209 -465 -59 -30 -102 -41 -287 -75 -117 -21 -167 -36 -213 -60
-154 -82 -254 -265 -268 -485 -10 -168 23 -297 102 -403 132 -176 390 -252
753 -222 240 19 431 70 615 164 356 181 605 503 705 911 44 178 48 239 67
1102 8 353 19 697 25 765 50 598 150 762 680 1111 80 53 169 119 197 147 124
124 180 322 153 543 -13 115 -37 190 -79 250 -48 71 -153 161 -294 254 -186
122 -270 188 -363 285 -120 125 -189 253 -247 454 -42 143 -58 428 -77 1349
-14 679 -23 776 -95 992 -115 344 -353 623 -672 786 -135 68 -217 98 -363 130
-193 43 -358 54 -551 37z"/>
<path d="M9550 7995 l-1055 -1055 1058 0 1057 0 0 1055 c0 580 -1 1055 -3
1055 -1 0 -477 -475 -1057 -1055z"/>
<path d="M10730 7995 l0 -1055 1057 0 1058 0 -1055 1055 c-580 580 -1056 1055
-1057 1055 -2 0 -3 -475 -3 -1055z"/>
<path d="M4965 7990 l-1050 -1050 1058 0 1057 0 0 1050 c0 578 -3 1050 -8
1050 -4 0 -480 -472 -1057 -1050z"/>
<path d="M6150 7990 l0 -1050 1052 0 1053 0 -1050 1050 c-577 578 -1051 1050
-1052 1050 -2 0 -3 -472 -3 -1050z"/>
<path d="M8825 6528 c872 -879 1771 -1778 1777 -1778 5 0 8 475 8 1055 l0
1055 -1057 0 -1058 0 330 -332z"/>
<path d="M10747 6853 c-10 -9 -9 -2103 1 -2103 9 0 2102 2093 2102 2103 0 9
-2094 10 -2103 0z"/>
<path d="M3920 6823 c0 -10 2093 -2103 2103 -2103 4 0 6 474 5 1053 l-3 1052
-1052 3 c-579 1 -1053 -1 -1053 -5z"/>
<path d="M6150 5773 l0 -1058 1055 1055 c580 580 1055 1056 1055 1057 0 2
-475 3 -1055 3 l-1055 0 0 -1057z"/>
<path d="M8460 5665 l0 -1055 1057 0 1058 0 -1055 1055 c-580 580 -1056 1055
-1057 1055 -2 0 -3 -475 -3 -1055z"/>
<path d="M7290 5645 l-1055 -1055 1058 0 1057 0 0 1055 c0 580 -1 1055 -3
1055 -1 0 -477 -475 -1057 -1055z"/>
<path d="M11816 5615 l-1048 -1055 1056 0 1056 0 0 1055 c0 580 -4 1055 -8
1055 -4 0 -479 -475 -1056 -1055z"/>
<path d="M3910 5595 l0 -1055 1057 0 1058 0 -1055 1055 c-580 580 -1056 1055
-1057 1055 -2 0 -3 -475 -3 -1055z"/>
<path d="M7160 3553 c502 -505 976 -981 1052 -1058 l138 -140 0 1058 0 1057
-1052 0 -1052 0 914 -917z"/>
<path d="M8460 3413 l0 -1058 1055 1055 c580 580 1055 1056 1055 1057 0 2
-475 3 -1055 3 l-1055 0 0 -1057z"/>
<path d="M4940 3385 c580 -580 1056 -1055 1057 -1055 2 0 3 475 3 1055 l0
1055 -1057 0 -1058 0 1055 -1055z"/>
<path d="M9662 3384 l-1054 -1059 1053 -3 c579 -1 1054 -1 1056 1 2 2 2 480 1
1062 l-3 1058 -1053 -1059z"/>
<path d="M10800 3383 l0 -1058 1055 1055 c580 580 1055 1056 1055 1057 0 2
-475 3 -1055 3 l-1055 0 0 -1057z"/>
<path d="M6110 3375 l0 -1055 1057 0 1058 0 -1055 1055 c-580 580 -1056 1055
-1057 1055 -2 0 -3 -475 -3 -1055z"/>
<path d="M7270 1115 c580 -580 1056 -1055 1057 -1055 2 0 3 475 3 1055 l0
1055 -1057 0 -1058 0 1055 -1055z"/>
<path d="M8500 1113 l0 -1058 1055 1055 c580 580 1055 1056 1055 1057 0 2
-475 3 -1055 3 l-1055 0 0 -1057z"/>
</g>
</svg>
