<svg clip-rule="evenodd" fill-rule="evenodd" stroke-linejoin="round" stroke-miterlimit="2" viewBox="0 0 100 100" xmlns="http://www.w3.org/2000/svg" xmlns:xlink="http://www.w3.org/1999/xlink"><clipPath id="a"><path clip-rule="evenodd" d="m0 0h100v100h-100z"/></clipPath><path d="m0 0h100v100h-100z" fill="none"/><g clip-path="url(#a)"><path d="m100 50c0-13.11-5.046-25.042-13.302-33.96-25.494-18.568-46.559 65.423-36.697 79.058 9.488 0 16.258-.567 25.914-2.33 14.439-8.768 24.085-24.641 24.085-42.768z" fill="#089aff"/><path d="m43.35 42.858s30.797-34.53 25.803-39.058c-5.899-2.449-12.369-3.8-19.153-3.8h-38c-3.182 0-6.235 1.264-8.485 3.515-2.251 2.25-3.515 5.303-3.515 8.486.001 12.678.002 30.857.002 30.857z" fill="#ffcc45"/><path d="m.002 42.858 69.142-39.062c6.56 2.722 12.416 6.798 17.216 11.884l.338.36-66.682 83.96h-8.014c-6.628 0-12-5.372-12-12 0-16.759 0-45.142 0-45.142z" fill="#fc593d"/><path d="m28.498 98.334 33.408-51.2 15.328-19.344c-18.008 22.446-17.734 63.02-1.316 64.978-7.558 4.59-16.428 7.232-25.916 7.232h-6.822z"/><path d="m61.713 47.132c-19.66 32.755-21.597 45.668-18.533 52.867h-23.881s19.967-24.887 42.414-52.867z" fill="#fff"/><circle cx="25.249" cy="59.167" r="9.167"/></g></svg>