<svg width="446" height="359" viewBox="0 0 446 359" fill="none" xmlns="http://www.w3.org/2000/svg">
<path d="M205.5 7.67365C202.124 11.8952 199.592 18.3683 199.592 22.3084C199.592 26.5299 191.433 42.2904 181.586 58.3323C161.048 90.6975 131.788 147.548 125.036 168.093C122.785 175.691 118.284 193.14 115.47 206.931L110.406 231.979L107.03 213.967C105.061 204.117 100.559 189.482 96.9017 181.602C86.492 158.242 70.4554 145.578 74.3942 163.59C75.5196 168.655 74.9569 172.033 73.5501 172.033C68.2046 172.033 63.7031 151.206 63.4218 127.847C63.1404 115.182 62.2964 103.925 60.8897 102.799C57.5136 99.1406 34.162 124.188 22.3456 143.889C-2.13134 184.697 -6.91419 245.488 11.0918 287.985C21.2202 312.751 40.3516 337.236 58.0762 349.056C76.3636 361.158 95.495 361.158 111.813 349.338C118.284 344.835 124.755 338.362 126.443 335.266C130.382 327.949 135.446 328.23 142.198 335.547C145.011 338.925 154.014 344.835 161.611 348.775C173.427 354.685 179.054 355.811 196.779 355.529C208.314 355.248 229.415 355.248 243.2 355.529C312.974 356.937 336.044 355.811 351.237 350.464C372.9 342.865 378.246 334.703 378.246 308.811C378.246 279.542 377.401 278.979 338.295 278.979C317.475 278.979 306.784 277.853 307.91 276.164C309.035 274.476 323.946 273.35 343.359 273.35C374.869 273.35 377.683 272.787 382.747 267.158C387.811 261.248 440.985 165.278 445.205 154.021C446.612 150.362 444.924 149.518 436.484 149.518H426.074L396.814 203.272L367.554 257.027L351.799 255.338C307.91 250.554 309.316 250.835 307.91 242.955C303.127 219.596 295.812 201.865 282.589 181.883C267.959 159.931 261.206 143.326 263.457 136.009C264.301 134.32 268.803 132.632 273.586 132.632C283.433 132.632 315.787 146.703 324.79 155.147C333.793 163.308 342.515 164.715 350.674 159.368C357.145 155.147 357.707 153.176 356.582 139.667C354.613 116.308 338.576 86.1945 314.943 61.4281C298.344 43.6976 290.466 38.0688 270.491 28.5C256.986 22.0269 242.638 13.021 238.418 8.51797C228.289 -2.45807 213.659 -2.7395 205.5 7.67365Z" fill="black"/>
</svg>
