<svg width="848" height="848" viewBox="0 0 848 848" fill="none" xmlns="http://www.w3.org/2000/svg">
<g clip-path="url(#clip0_285_9)">
<path d="M0 0V848H848V0H0ZM707.459 393.056C706.711 395.833 637.295 523.292 635.533 526.336C634.144 528.738 627.95 538.51 626.295 539.792C624.586 541.073 619.193 543.957 616.417 544.17C613.64 544.33 533.491 543.529 533.491 543.529C533.491 543.529 530.501 549.029 530.874 549.563C531.248 550.097 532.156 551.058 532.156 551.058C532.156 551.058 601.038 551.219 604.189 551.966C607.339 552.714 612.946 552.34 616.096 556.825C619.247 561.257 620.742 560.136 622.023 570.976C623.358 581.762 623.038 593.242 622.397 600.344C621.703 608.354 620.048 614.014 618.659 617.965C615.776 626.028 611.824 632.009 607.179 635.319C602.48 638.683 584.271 643.542 576.102 645.732C567.879 647.974 547.427 653.207 529.913 653.207C512.399 653.207 503.535 652.46 488.637 650.965C473.739 649.469 466.157 648.989 460.337 647.227C453.982 645.304 442.609 642.101 436.415 643.596C430.274 645.091 427.604 647.227 420.876 649.096C414.202 650.965 401.173 651.552 395.192 651.338C390.974 651.178 375.969 651.499 363.261 648.401C351.3 645.518 341.582 639.164 339.392 637.936C330.475 632.703 324.067 627.79 316.805 620.902C312.427 616.737 311.412 617.004 307.835 613.8C306.5 612.572 304.47 618.659 300.092 624.907C294.699 632.649 289.306 636.654 284.981 640.178C274.408 648.829 261.753 652.994 252.782 653.207C243.865 653.367 230.142 651.498 222.719 647.921C216.846 645.144 203.817 635.266 197.302 629.072C187.317 619.62 170.604 598.048 166.439 590.412C152.716 564.942 145.027 546.733 143.158 534.078C137.658 497.715 138.833 478.065 140.488 462.259C142.731 440.687 151.327 413.294 154.798 403.469C159.497 390.333 170.871 373.887 174.075 368.6C177.279 363.261 182.244 356.8 184.38 353.863C185.448 352.368 191.269 345.96 193.137 343.717C193.725 343.023 196.768 339.819 196.768 339.819C196.768 339.819 202.322 334.48 202.909 333.999C204.404 332.611 208.676 328.98 211.025 327.591C217.487 323.8 220.851 328.125 221.438 330.155C221.758 331.489 222.239 332.29 221.652 336.776C220.797 343.237 220.21 345.693 219.943 349.538C219.836 350.873 219.569 353.382 219.462 355.465C219.355 357.547 219.462 365.397 219.462 366.838C219.516 368.921 220.156 374.901 220.477 377.037C220.797 379.173 221.278 383.819 221.705 386.328C222.186 389.158 222.826 393.804 223.2 395.513C223.414 396.42 224.428 401.226 224.535 401.76C224.855 402.881 225.389 404.644 226.564 408.328C226.991 409.663 227.899 412.119 228.433 413.134C229.448 415.216 231.637 419.381 232.331 419.381C233.452 419.381 234.413 413.881 234.627 411.745C234.734 410.838 234.787 409.663 234.627 408.168C234.253 404.804 233.452 403.362 233.025 401.226C232.758 399.838 232.064 398.503 232.011 396.207C232.011 394.925 232.278 393.928 232.812 393.217C233.345 392.522 235.375 392.629 236.176 392.95C237.19 393.377 237.991 393.537 239.913 394.925C249.952 402.187 252.568 406.94 252.568 406.94C257.588 414.148 260.738 419.595 264.209 428.031C265.437 431.022 268.16 438.23 272.165 452.648C272.272 453.128 274.461 461.778 275.476 465.623C275.903 467.225 276.918 474.22 277.131 475.555C277.345 476.89 277.825 481.482 277.932 482.176C278.199 483.992 279.641 498.356 279.641 498.356C279.641 498.356 288.131 441.861 298.17 411.158C308.208 380.455 336.669 328.553 340.567 320.169C344.518 311.786 357.814 290.374 362.62 282.684C369.401 271.898 377.998 260.364 382.43 252.088C388.945 239.967 392.522 238.098 393.056 230.836C393.644 223.627 394.712 211.88 398.076 207.395C401.44 202.963 407.42 197.356 413.988 195.914C419.862 194.633 426.697 194.205 432.677 196.982C438.658 199.759 440.473 201.895 443.089 205.098C445.706 208.302 446.08 212.254 449.07 215.244C452.06 218.234 466.958 224.161 477.37 229.02L487.783 233.826C487.783 233.826 507.059 242.53 513.574 247.442C521.477 253.423 534.666 265.491 541.714 272.913C548.816 280.335 569.641 304.15 577.81 322.412C586.034 340.62 588.116 344.038 591.587 355.892C596.126 371.27 597.407 379.28 595.325 386.809C595.325 387.022 595.165 387.289 595.058 387.663C594.47 389.586 592.121 396.901 584.966 401.119C583.791 401.814 581.014 403.415 577.116 403.789C574.607 404.003 572.738 403.682 570.709 403.255C565.422 402.187 561.578 400.212 560.456 399.411C556.558 396.527 552.767 392.522 550.418 390.654C549.67 390.28 537.389 381.736 531.996 379.493C526.603 377.251 519.18 372.765 513.574 371.11C508.02 369.455 499.263 365.877 496.86 365.877C494.458 365.877 489.759 363.688 485.7 363.848C481.589 364.062 478.812 364.222 476.943 366.999C475.074 369.829 473.205 370.897 474.113 375.008C475.074 379.12 475.608 385.047 478.065 390.654C481.696 398.983 483.191 403.255 486.021 408.328C495.152 424.614 500.011 426.483 509.195 441.06C518.646 456.065 523.078 469.307 525.481 476.623C527.457 482.71 530.447 491.521 531.248 501.186L532.209 512.719C532.209 512.719 531.248 513.627 533.491 514.748L535.734 515.87L569.053 519.981L606.111 522.598L609.689 520.676L683.11 386.916C683.11 386.916 683.27 386.168 684.605 386.008C685.886 385.794 684.979 385.794 685.886 385.794C686.794 385.794 707.299 386.168 708.42 387.129C709.541 388.037 708.046 390.28 707.299 393.056H707.459Z" fill="#FF87A6"/>
</g>
<defs>
<clipPath id="clip0_285_9">
<rect width="848" height="848" fill="white"/>
</clipPath>
</defs>
</svg>
