<?xml version="1.0" standalone="no"?>
<!DOCTYPE svg PUBLIC "-//W3C//DTD SVG 20010904//EN"
 "http://www.w3.org/TR/2001/REC-SVG-20010904/DTD/svg10.dtd">
<svg version="1.0" xmlns="http://www.w3.org/2000/svg"
 width="228.000000pt" height="228.000000pt" viewBox="0 0 228.000000 228.000000"
 preserveAspectRatio="xMidYMid meet">
<metadata>
Created by potrace 1.11, written by Peter Selinger 2001-2013
</metadata>
<g transform="translate(0.000000,228.000000) scale(0.100000,-0.100000)"
fill="#000000" stroke="none">
<path d="M390 1545 c-4 -11 -51 -128 -103 -260 -52 -132 -105 -264 -116 -293
l-21 -53 46 3 46 3 123 308 c67 169 122 307 121 308 0 1 -21 2 -45 3 -35 2
-44 -2 -51 -19z"/>
<path d="M600 1555 c-8 -10 -73 -170 -231 -568 l-19 -48 46 3 46 3 119 295
c65 162 118 302 119 310 0 19 -66 22 -80 5z"/>
<path d="M739 1546 c0 -12 -1 -153 -2 -314 l-2 -293 50 3 50 3 0 303 c0 167
-2 307 -5 310 -3 4 -24 7 -47 8 -37 0 -43 -3 -44 -20z"/>
<path d="M882 1557 c-11 -5 -22 -19 -24 -31 -2 -11 -3 -144 -3 -294 0 -229 3
-275 15 -282 8 -5 77 -10 153 -10 l137 0 -20 40 c-22 43 -18 42 -127 42 l-63
0 0 229 c0 254 -7 231 65 231 57 0 57 1 55 -49 -3 -75 -4 -73 45 -73 29 0 45
4 46 13 9 194 12 191 -144 192 -63 0 -124 -3 -135 -8z"/>
<path d="M1199 1550 c-15 -12 -19 -32 -21 -100 -1 -47 1 -95 5 -106 4 -12 51
-62 105 -112 l98 -91 -1 -58 0 -58 -123 -3 -123 -3 22 -39 23 -40 128 0 c71 0
138 5 149 10 17 10 19 22 19 119 l0 108 -102 98 c-101 97 -102 99 -103 148 -2
60 5 64 98 58 10 -1 13 -14 12 -43 -3 -69 0 -74 51 -70 l44 4 0 83 c0 64 -4
86 -16 96 -25 20 -241 20 -265 -1z"/>
<path d="M1516 1549 c-17 -14 -19 -27 -18 -115 l1 -99 102 -97 103 -98 1 -60
1 -60 -103 0 -104 0 23 -40 23 -40 112 0 c145 0 143 -1 143 135 l0 103 -104
98 -104 99 1 54 2 54 95 -1 c52 0 102 -1 111 -1 15 -1 16 -28 16 -256 0 -191
3 -258 13 -270 10 -12 39 -15 151 -15 77 0 139 3 139 6 0 4 -9 22 -21 40 -22
37 -22 37 -120 36 l-66 0 0 234 c-1 232 -1 235 -25 272 l-25 37 -163 0 c-136
0 -167 -2 -184 -16z"/>
<path d="M1890 1563 c0 -2 11 -21 25 -42 22 -33 31 -38 66 -39 23 -1 44 -4 48
-6 4 -3 5 -30 3 -61 l-4 -56 49 3 48 3 3 70 c3 90 -3 112 -31 121 -21 7 -207
13 -207 7z"/>
<path d="M274 850 c-44 -17 -52 -111 -13 -142 31 -26 69 -24 69 3 0 15 -5 19
-15 15 -18 -6 -45 19 -45 43 0 27 25 55 44 48 11 -5 16 -1 16 12 0 15 -22 35
-33 30 -1 0 -12 -4 -23 -9z"/>
<path d="M367 846 c-27 -21 -27 -45 -1 -76 14 -16 22 -35 19 -41 -5 -8 -10 -8
-18 0 -15 15 -26 14 -23 -1 8 -53 68 -51 80 2 5 18 0 33 -19 54 -30 35 -31 40
-5 33 14 -4 20 0 20 13 0 22 -34 32 -53 16z"/>
<path d="M517 848 c-23 -12 -21 -54 3 -78 11 -11 20 -25 20 -31 0 -6 -9 -9
-20 -6 -15 4 -20 0 -20 -14 0 -25 25 -35 56 -21 30 14 32 54 4 82 -11 11 -20
25 -20 31 0 6 9 8 20 4 21 -7 25 1 11 24 -12 18 -32 22 -54 9z"/>
<path d="M638 853 c-34 -3 -48 -8 -48 -19 0 -7 7 -14 15 -14 15 0 19 -21 15
-86 -1 -24 4 -33 19 -37 20 -5 21 -1 21 59 0 50 3 64 15 64 8 0 15 9 15 20 0
11 -1 19 -2 18 -2 -1 -24 -3 -50 -5z"/>
<path d="M1384 835 c-31 -31 -32 -82 -3 -119 25 -32 72 -33 77 -2 3 12 -1 17
-10 14 -22 -9 -48 11 -48 37 0 39 11 55 36 55 15 0 24 6 24 15 0 8 -3 15 -7
16 -5 0 -16 2 -27 4 -10 2 -29 -7 -42 -20z"/>
<path d="M1514 853 c-28 -5 -43 -40 -39 -93 7 -95 100 -96 110 -1 6 66 -21
102 -71 94z m31 -79 c0 -28 -4 -39 -15 -39 -16 0 -26 45 -16 72 11 28 31 7 31
-33z"/>
<path d="M1913 850 c-71 -29 -49 -167 25 -158 17 2 28 10 30 21 3 13 -1 18
-15 16 -29 -5 -43 10 -43 47 0 30 4 35 30 41 32 6 40 27 14 37 -9 3 -16 6 -17
5 -1 0 -12 -4 -24 -9z"/>
<path d="M172 778 c1 -83 3 -89 24 -81 11 4 14 22 13 79 -1 64 -4 74 -20 74
-16 0 -18 -9 -17 -72z"/>
<path d="M710 782 c0 -74 10 -92 48 -92 37 0 51 27 52 98 0 55 -2 62 -20 62
-18 0 -20 -7 -20 -60 0 -48 -3 -60 -16 -60 -12 0 -15 10 -13 43 3 65 0 77 -16
77 -12 0 -15 -14 -15 -68z"/>
<path d="M834 778 c1 -77 8 -90 46 -83 40 8 60 34 60 80 0 51 -23 75 -71 75
l-35 0 0 -72z m64 25 c4 -10 7 -24 6 -30 -1 -7 -2 -20 -3 -28 0 -8 -8 -15 -16
-15 -11 0 -14 11 -12 45 2 47 11 57 25 28z"/>
<path d="M966 778 c1 -40 2 -75 3 -78 2 -12 71 -5 76 8 5 15 -19 27 -35 17 -5
-3 -10 2 -10 13 0 12 9 22 21 25 23 6 17 27 -7 27 -8 0 -14 7 -14 15 0 8 9 15
20 15 11 0 20 7 20 15 0 11 -11 15 -38 15 l-38 0 2 -72z"/>
<path d="M1064 771 c0 -65 3 -78 16 -76 10 1 16 16 18 46 l4 44 17 -44 c10
-25 25 -45 34 -47 20 -3 19 -8 21 84 2 65 1 72 -17 72 -16 0 -19 -6 -15 -35 2
-19 1 -35 -3 -35 -4 0 -13 16 -19 35 -9 26 -17 35 -34 35 -20 0 -22 -4 -22
-79z"/>
<path d="M1193 838 c1 -7 9 -16 19 -20 13 -5 16 -18 13 -56 -3 -51 2 -65 23
-69 13 -3 15 6 13 80 0 35 3 47 14 47 8 0 15 7 15 15 0 11 -12 15 -50 15 -35
0 -49 -4 -47 -12z"/>
<path d="M1612 778 c3 -69 4 -73 31 -82 48 -17 62 0 65 83 3 65 1 72 -15 69
-14 -3 -18 -14 -18 -58 0 -42 -4 -55 -15 -55 -12 0 -15 13 -15 58 1 49 -2 57
-17 57 -17 0 -19 -8 -16 -72z"/>
<path d="M1739 828 c-1 -24 -1 -93 0 -119 1 -9 8 -16 16 -16 11 0 15 12 15 41
l1 41 21 -40 c26 -50 22 -47 40 -40 11 4 15 24 15 80 1 68 -1 75 -19 75 -17 0
-20 -5 -16 -40 2 -22 2 -40 1 -40 -2 0 -10 18 -19 40 -18 46 -53 57 -55 18z"/>
<path d="M1990 776 c0 -68 10 -99 28 -82 3 4 7 40 7 81 1 66 -1 75 -17 75 -16
0 -18 -9 -18 -74z"/>
<path d="M2054 778 c1 -75 8 -89 42 -83 10 2 22 4 27 4 17 2 5 31 -13 31 -18
0 -20 7 -20 60 0 51 -3 60 -18 60 -16 0 -18 -9 -18 -72z"/>
</g>
</svg>
