<svg id="Layer_2" data-name="Layer 2" xmlns="http://www.w3.org/2000/svg" viewBox="0 0 640 872.99"><defs><style>.cls-1{fill:none;stroke:#000;stroke-linecap:round;stroke-linejoin:round;stroke-width:15px;}.cls-2{fill:#000;}</style></defs><polygon class="cls-1" points="533.88 635.51 89.61 635.51 7.5 360.3 451.76 360.3 533.88 635.51"/><polygon class="cls-1" points="121.71 357.77 12.39 357.77 7.5 323.27 116.81 323.27 121.71 357.77"/><polyline class="cls-1" points="588.95 319.7 632.5 319.7 534.16 635.51 533.88 635.51 451.76 360.3 175.59 360.3"/><path class="cls-1" d="M778.79,407.8" transform="translate(-189.84 -88.1)"/><path class="cls-1" d="M633.12,407.8" transform="translate(-189.84 -88.1)"/><line class="cls-1" x1="405.98" y1="319.7" x2="443.28" y2="319.7"/><path class="cls-1" d="M595.82,407.8" transform="translate(-189.84 -88.1)"/><path class="cls-1" d="M378.08,407.8" transform="translate(-189.84 -88.1)"/><path class="cls-1" d="M604,204.33c-8.08,43.13-35.56,71.92-46.3,82.89-4.07,4.16-.75.4-48.53,40.17-3.71,3.07-19.7,16-37.92,31.41-30.22,25.51-36.47,31.91-50.91,37.92-7.44,3.09-41.25,16.11-57.41,1.08-1.72-1.59-3.61-3.81-7.59-14.09-17.41-45-13.48-85.31-12.05-97.42,0-.29.08-.68.14-1.15,2.54-20.63,8.57-64.87,42.24-107.24,7.36-9.26,20-25.21,38.38-39.18a139,139,0,0,1,34.12-19.35,121.22,121.22,0,0,1,31.49-7.55c38.79-3.95,69.09,11.71,79.78,17.6l1.47.82C592.6,142.35,599,153.67,600.71,157a50,50,0,0,1,4.91,14.24C607.81,183,605.8,194.46,604,204.33Z" transform="translate(-189.84 -88.1)"/><path class="cls-1" d="M343.38,285.14c-24.22-25.45-29.05-33.73-44.71-48.6-11.3-10.73-21.19-19.81-28.81-16.89-10.1,3.86-10,26.36-9.94,33.79.08,14.54,3.72,30.9,23.85,67.57,32,58.25,42.73,74.54,42.73,74.54,3.89,5.87,10,14.91,10.93,27.82,1.11,15.52.22,17.62-4.84,25" transform="translate(-189.84 -88.1)"/><path class="cls-1" d="M561.73,283c17.14-16.76,35.49-28.74,64.55-46.79,29.47-18.3,52.68-23.23,61.15-16.25,5.84,4.81,3,17.11,0,29.64-4.8,19.95-12.76,37.33-32.52,66.49-26.64,39.31-38.82,56.91-46.26,65.77-2.43,2.9-8.35,8.23-11.57,17.35-3.65,10.37,1.27,32.65,5.45,48.83" transform="translate(-189.84 -88.1)"/><path class="cls-1" d="M458.12,119.37A139,139,0,0,0,424,138.72c-.19-3.64-.24-8.07-.3-13.39-.2-17.88-.22-27.66,4.35-29.46,3.32-1.29,7.43,2.22,13.65,7.64C448.77,109.69,454.48,114.67,458.12,119.37Z" transform="translate(-189.84 -88.1)"/><path class="cls-1" d="M611.84,157.83a48.51,48.51,0,0,1-6.22,13.37A50,50,0,0,0,600.71,157c-1.72-3.29-8.11-14.61-29.85-26.72l-1.47-.82A70,70,0,0,1,575.9,114c3.43-6.47,7.53-14.2,13.21-14.27,6.46-.08,11.19,9.82,15.33,18.5C610.06,130,616.23,142.89,611.84,157.83Z" transform="translate(-189.84 -88.1)"/><path class="cls-1" d="M485.84,233.48c.57-.79,5.89-7.81,15.32-7.94,9.77-.15,15.37,7.23,15.89,7.94" transform="translate(-189.84 -88.1)"/><path class="cls-1" d="M618.86,448c9.39-37,22.14-51.49,38.06-69.16,11.84-13.15,32.55-32.87,58.76-54.72,19.61-16.35,51.05-42.56,66.54-33.27,12.34,7.39,10.06,34.61,8.07,58.48-.7,8.29-2,17.23-8.07,43.35-10.68,45.88-10.55,55.12-14.11,55.45-9,.84-21.39-60.69-22.19-60.49-.51.13,8.3,24.52,1.39,51.19-.41,1.58-5.2,19.63-10.41,19.34-7.67-.43-11.95-40.25-12.4-40.17s7.24,22.61.49,45.62c-3.66,12.5-10.27,26.6-14.38,25.79-7.5-1.47-4.68-52.07-4.46-52.07s3.52,30.11-6.94,62c-6.06,18.43-23.65,29.36-29.07,33.71" transform="translate(-189.84 -88.1)"/><path class="cls-2" d="M218.29,866.09v-76h16.15v76Z" transform="translate(-189.84 -88.1)"/><path class="cls-2" d="M259.14,866.09a15,15,0,0,1-7.86-2.11,16,16,0,0,1-5.65-5.65,15,15,0,0,1-2.11-7.86V805.71a15,15,0,0,1,2.11-7.86,16,16,0,0,1,5.65-5.65,15,15,0,0,1,7.86-2.11h60.17v16.47H263.36a3.63,3.63,0,0,0-2.58.84,3.47,3.47,0,0,0-.9,2.64v36.1a3.13,3.13,0,0,0,3.48,3.48h55.95v16.47Z" transform="translate(-189.84 -88.1)"/><path class="cls-2" d="M345.7,866.09a15.14,15.14,0,0,1-7.82-2.11,15.89,15.89,0,0,1-5.7-5.7,15.21,15.21,0,0,1-2.11-7.81V843.4h16.36v6.22H389.5v-13.3H345.7a15.14,15.14,0,0,1-7.82-2.11,16,16,0,0,1-5.7-5.64,15.13,15.13,0,0,1-2.11-7.87v-15a15.12,15.12,0,0,1,2.11-7.86,16,16,0,0,1,5.7-5.65,15.14,15.14,0,0,1,7.82-2.11h44.75a14.83,14.83,0,0,1,7.76,2.11,16.48,16.48,0,0,1,5.7,5.65,14.8,14.8,0,0,1,2.17,7.86v7.08H389.5v-6.23H346.43v13.3h44a14.83,14.83,0,0,1,7.76,2.11,16.48,16.48,0,0,1,5.7,5.65,14.78,14.78,0,0,1,2.17,7.86v15a14.88,14.88,0,0,1-2.17,7.81,16.37,16.37,0,0,1-5.7,5.7,14.83,14.83,0,0,1-7.76,2.11Z" transform="translate(-189.84 -88.1)"/><path class="cls-2" d="M477.11,866.09l-27.65-76h17.41l16.58,45.28L500,790.09h15.09l16.68,45.28,16.58-45.28h17.31l-27.66,76H525.46l-18-48.87-17.84,48.87Z" transform="translate(-189.84 -88.1)"/><path class="cls-2" d="M576.34,866.09v-76h70.19v16.47H592.91v13.3h43.17v16.46H592.91v13.3h53.62v16.47Z" transform="translate(-189.84 -88.1)"/><path class="cls-2" d="M657.19,866.09v-76h70.2v16.47H673.77v13.3h43.17v16.46H673.77v13.3h53.62v16.47Z" transform="translate(-189.84 -88.1)"/><path class="cls-2" d="M737.94,866.09v-76h16.47v29.77h14.88l24.92-29.77h17.1v5.7l-27.13,32.3,27.13,32.3v5.7h-17.1l-24.92-29.77H754.41v29.77Z" transform="translate(-189.84 -88.1)"/><path class="cls-2" d="M346.12,961.09V931.64a14.54,14.54,0,0,1,2.11-7.7,15.94,15.94,0,0,1,5.59-5.54,14.82,14.82,0,0,1,7.71-2.06H404.6v-15.1H362.27v6.12H346.12v-7a14.55,14.55,0,0,1,2.11-7.71,15.94,15.94,0,0,1,5.59-5.54,14.91,14.91,0,0,1,7.71-2.06h43.81a14.87,14.87,0,0,1,7.7,2.06,16,16,0,0,1,5.6,5.54,14.64,14.64,0,0,1,2.11,7.71v16.78a14.64,14.64,0,0,1-2.11,7.71,16.37,16.37,0,0,1-5.6,5.59,14.54,14.54,0,0,1-7.7,2.11H362.27v12.35h58.48v16.15Z" transform="translate(-189.84 -88.1)"/><path class="cls-2" d="M441.44,958.72a18,18,0,0,1-5.6-6.12,15.78,15.78,0,0,1-2.11-7.87V900.82a15.11,15.11,0,0,1,2.11-7.81,16.49,16.49,0,0,1,5.6-5.75,14.24,14.24,0,0,1,7.7-2.17H493a14.24,14.24,0,0,1,7.7,2.17,16.49,16.49,0,0,1,5.6,5.75,15.11,15.11,0,0,1,2.11,7.81v43.91a15.78,15.78,0,0,1-2.11,7.87,18,18,0,0,1-5.6,6.12,13.39,13.39,0,0,1-7.7,2.37H449.14A13.39,13.39,0,0,1,441.44,958.72ZM449.88,930l33.67-28.29H449.88Zm8.66,13.94h33.67V915.6Z" transform="translate(-189.84 -88.1)"/><path class="cls-2" d="M521.77,961.09V931.64a14.54,14.54,0,0,1,2.11-7.7,15.86,15.86,0,0,1,5.59-5.54,14.79,14.79,0,0,1,7.71-2.06h43.07v-15.1H537.92v6.12H521.77v-7a14.55,14.55,0,0,1,2.11-7.71,15.86,15.86,0,0,1,5.59-5.54,14.88,14.88,0,0,1,7.71-2.06H581a14.88,14.88,0,0,1,7.71,2.06,15.86,15.86,0,0,1,5.59,5.54,14.56,14.56,0,0,1,2.12,7.71v16.78a14.56,14.56,0,0,1-2.12,7.71,16.26,16.26,0,0,1-5.59,5.59,14.55,14.55,0,0,1-7.71,2.11H537.92v12.35H596.4v16.15Z" transform="translate(-189.84 -88.1)"/><path class="cls-2" d="M609.38,961.09V931.64a14.54,14.54,0,0,1,2.11-7.7,15.94,15.94,0,0,1,5.59-5.54,14.82,14.82,0,0,1,7.71-2.06h43.07v-15.1H625.53v6.12H609.38v-7a14.55,14.55,0,0,1,2.11-7.71,15.94,15.94,0,0,1,5.59-5.54,14.91,14.91,0,0,1,7.71-2.06H668.6a14.87,14.87,0,0,1,7.7,2.06,16,16,0,0,1,5.6,5.54A14.64,14.64,0,0,1,684,900.4v16.78a14.64,14.64,0,0,1-2.11,7.71,16.37,16.37,0,0,1-5.6,5.59,14.54,14.54,0,0,1-7.7,2.11H625.53v12.35H684v16.15Z" transform="translate(-189.84 -88.1)"/></svg>